<?xml version="1.0" standalone="no"?>
<!DOCTYPE svg PUBLIC "-//W3C//DTD SVG 20010904//EN"
 "http://www.w3.org/TR/2001/REC-SVG-20010904/DTD/svg10.dtd">
<svg version="1.0" xmlns="http://www.w3.org/2000/svg"
 width="225.000000pt" height="225.000000pt" viewBox="0 0 225.000000 225.000000"
 preserveAspectRatio="xMidYMid meet">

<g transform="translate(0.000000,225.000000) scale(0.100000,-0.100000)"
fill="#000000" stroke="none">
<path d="M1240 1631 c-148 -47 -278 -151 -378 -300 -193 -288 -166 -565 57
-600 l50 -8 20 61 c33 100 51 187 51 253 0 59 -1 63 -26 69 -16 4 -39 0 -60
-10 -39 -18 -74 -21 -74 -6 0 36 193 190 273 217 51 18 104 3 113 -32 3 -14
-13 -80 -45 -173 -51 -152 -90 -316 -79 -327 21 -21 221 123 299 216 147 174
202 316 178 454 -24 137 -107 205 -248 204 -44 0 -100 -8 -131 -18z m135 -84
c11 -18 12 -31 5 -59 -12 -41 -85 -114 -124 -124 -87 -21 -115 58 -49 137 58
69 138 91 168 46z"/>
</g>
</svg>
