<?xml version="1.0" standalone="no"?>
<!DOCTYPE svg PUBLIC "-//W3C//DTD SVG 20010904//EN"
 "http://www.w3.org/TR/2001/REC-SVG-20010904/DTD/svg10.dtd">
<svg version="1.0" xmlns="http://www.w3.org/2000/svg"
 width="295.000000pt" height="171.000000pt" viewBox="0 0 295.000000 171.000000"
 preserveAspectRatio="xMidYMid meet">

<g transform="translate(0.000000,171.000000) scale(0.100000,-0.100000)"
fill="#000000" stroke="none">
<path d="M2340 1312 c-13 -11 -25 -35 -29 -58 -5 -32 -11 -40 -31 -42 -92 -13
-92 -151 0 -164 25 -3 25 -5 30 -116 5 -104 7 -115 29 -133 35 -28 77 -24 112
10 28 29 29 32 29 131 0 87 2 101 18 106 99 30 113 118 25 159 -28 13 -43 26
-43 38 0 23 -19 58 -39 74 -24 18 -76 16 -101 -5z m65 -268 c0 -55 -3 -69 -15
-69 -11 0 -16 15 -18 59 -3 66 2 90 21 83 8 -2 12 -26 12 -73z m3 -106 c-3 -7
-11 -13 -18 -13 -7 0 -15 6 -17 13 -3 7 4 12 17 12 13 0 20 -5 18 -12z"/>
<path d="M485 1196 c-71 -31 -121 -131 -112 -222 7 -69 33 -119 79 -157 40
-32 106 -45 148 -29 39 15 44 10 47 -38 4 -81 85 -119 138 -65 l25 24 0 229
c0 226 0 229 -23 250 -27 26 -77 29 -111 7 -20 -14 -27 -14 -59 0 -44 18 -92
19 -132 1z m95 -160 c-13 -13 -35 7 -25 24 5 8 11 8 21 -1 10 -8 12 -15 4 -23z
m65 -41 c0 -11 -119 -20 -142 -11 -8 3 -11 11 -8 16 8 14 150 9 150 -5z m-59
-46 c3 -6 2 -15 -2 -19 -12 -12 -38 5 -30 19 9 14 23 14 32 0z"/>
<path d="M879 1184 c-23 -24 -24 -32 -24 -143 1 -103 4 -123 25 -166 30 -61
88 -95 161 -95 84 0 137 32 170 105 15 32 19 65 19 158 0 112 -1 119 -25 142
-30 31 -83 33 -116 6 -21 -17 -24 -30 -27 -99 l-4 -80 26 -4 c34 -4 35 -22 2
-26 -18 -2 -26 -10 -28 -29 -4 -38 -27 -41 -34 -4 -5 24 -12 31 -30 31 -15 0
-24 6 -24 15 0 9 9 15 24 15 20 0 24 6 29 41 13 98 -19 159 -83 159 -26 0 -43
-7 -61 -26z"/>
<path d="M1363 1185 c-107 -65 -126 -252 -35 -348 56 -59 122 -73 190 -38 36
18 37 18 56 0 22 -21 73 -25 97 -6 34 26 39 55 39 210 0 141 -2 157 -21 181
-24 31 -81 36 -117 10 -21 -14 -26 -14 -56 0 -49 23 -104 20 -153 -9z m172
-190 c0 -11 -119 -20 -142 -11 -8 3 -11 11 -8 16 8 14 150 9 150 -5z"/>
<path d="M1781 1184 c-19 -25 -21 -40 -21 -191 0 -161 0 -164 25 -188 23 -24
28 -25 179 -25 149 0 156 1 183 24 l28 24 0 145 c0 131 -2 148 -21 174 -43 58
-140 81 -205 48 -27 -14 -32 -14 -51 0 -36 25 -93 20 -117 -11z m169 -139 l24
-25 28 27 c22 21 31 24 40 15 9 -9 6 -18 -15 -40 l-27 -28 27 -27 c21 -21 25
-29 15 -39 -9 -9 -18 -6 -40 15 l-28 27 -24 -25 c-13 -14 -29 -25 -37 -25 -21
0 -15 25 12 50 l25 24 -26 27 c-14 15 -23 32 -20 38 11 16 20 13 46 -14z"/>
<path d="M693 495 c0 -38 2 -53 4 -32 2 20 2 52 0 70 -2 17 -4 1 -4 -38z"/>
<path d="M1643 495 c0 -38 2 -53 4 -32 2 20 2 52 0 70 -2 17 -4 1 -4 -38z"/>
<path d="M733 518 c-21 -35 13 -116 39 -90 9 9 8 12 -5 12 -23 0 -23 46 0 58
15 9 14 11 -5 21 -16 8 -23 8 -29 -1z"/>
<path d="M1232 518 c-13 -13 7 -88 25 -95 21 -8 27 4 10 21 -15 16 -12 56 4
56 5 0 9 4 9 9 0 13 -37 20 -48 9z"/>
<path d="M1682 517 c-24 -30 14 -115 40 -89 9 9 8 12 -5 12 -23 0 -23 46 0 58
15 9 14 11 -4 21 -16 8 -23 7 -31 -2z"/>
<path d="M430 473 c0 -24 5 -43 10 -43 6 0 10 16 10 36 0 49 32 44 41 -6 l6
-35 4 35 c3 23 10 36 22 38 14 3 17 -4 17 -32 0 -20 5 -36 10 -36 14 0 12 67
-2 77 -7 4 -37 8 -65 8 l-53 1 0 -43z"/>
<path d="M796 513 c-3 -3 -6 -24 -6 -45 0 -27 4 -38 15 -38 11 0 15 11 15 39
0 38 -10 57 -24 44z"/>
<path d="M903 513 c-21 -8 -15 -22 7 -16 26 7 26 -13 -1 -27 -30 -17 -20 -44
17 -46 32 -2 32 -1 26 40 -6 49 -19 62 -49 49z m27 -63 c0 -5 -4 -10 -10 -10
-5 0 -10 5 -10 10 0 6 5 10 10 10 6 0 10 -4 10 -10z"/>
<path d="M993 513 c-19 -7 -16 -24 10 -51 l22 -25 -22 6 c-26 6 -32 -10 -7
-20 8 -3 23 2 32 10 15 15 14 19 -8 42 -20 21 -21 25 -6 25 9 0 14 5 11 10 -7
11 -13 11 -32 3z"/>
<path d="M1067 514 c-12 -13 -7 -42 8 -48 8 -3 15 -10 15 -17 0 -6 -7 -9 -15
-6 -8 4 -17 2 -20 -3 -4 -6 7 -10 24 -10 39 0 50 19 23 41 -26 20 -29 34 -6
25 10 -4 14 -1 12 6 -5 15 -31 22 -41 12z"/>
<path d="M1147 502 c-10 -10 -17 -26 -17 -35 0 -22 43 -49 64 -41 22 8 20 23
-2 17 -10 -2 -24 3 -31 11 -12 14 -9 16 18 16 36 0 43 23 12 40 -25 13 -25 13
-44 -8z m38 -12 c3 -5 -1 -10 -9 -10 -9 0 -16 5 -16 10 0 6 4 10 9 10 6 0 13
-4 16 -10z"/>
<path d="M1380 473 c0 -24 5 -43 10 -43 6 0 10 16 10 35 0 40 26 50 34 13 3
-13 7 -32 9 -43 3 -13 5 -10 6 10 3 61 41 74 41 14 0 -16 5 -29 10 -29 11 0
14 79 3 81 -5 1 -34 2 -65 3 l-58 2 0 -43z"/>
<path d="M1538 514 c-5 -4 -8 -22 -8 -40 0 -37 19 -53 56 -46 20 4 24 10 24
43 0 47 -17 52 -22 7 -4 -48 -32 -44 -38 5 -3 22 -8 35 -12 31z"/>
<path d="M1747 513 c-11 -10 -8 -83 3 -83 6 0 10 20 10 45 0 46 -2 50 -13 38z"/>
<path d="M1844 511 c-2 -2 -4 -22 -4 -43 0 -46 17 -51 22 -5 2 20 8 32 18 32
10 0 16 -12 18 -32 2 -18 7 -33 12 -33 5 0 10 15 12 33 2 20 8 32 18 32 10 0
16 -12 18 -32 4 -40 22 -44 22 -5 0 47 -14 57 -75 57 -31 0 -59 -2 -61 -4z"/>
<path d="M1999 503 c-12 -15 -12 -16 4 -10 32 12 39 -4 12 -25 -31 -24 -19
-48 23 -44 24 3 27 7 24 37 -6 57 -36 76 -63 42z m41 -53 c0 -5 -4 -10 -10
-10 -5 0 -10 5 -10 10 0 6 5 10 10 10 6 0 10 -4 10 -10z"/>
<path d="M2085 511 c-10 -9 -5 -81 5 -81 6 0 10 9 10 19 0 30 11 51 26 51 9 0
14 -12 14 -35 0 -19 5 -35 10 -35 11 0 14 79 3 81 -24 4 -64 4 -68 0z"/>
<path d="M2193 513 c-21 -8 -14 -25 7 -18 26 8 26 -11 -1 -25 -31 -17 -20 -44
19 -46 18 -1 35 2 38 7 3 5 1 9 -5 9 -5 0 -11 17 -13 37 -3 37 -17 48 -45 36z
m29 -65 c-6 -6 -15 -8 -19 -4 -4 4 -1 11 7 16 19 12 27 3 12 -12z"/>
<path d="M2292 509 c-20 -7 -23 -14 -17 -38 4 -18 1 -38 -7 -50 -11 -18 -11
-23 2 -31 8 -6 26 -9 40 -8 34 4 40 43 8 51 l-23 7 21 14 c12 9 22 26 22 41 0
27 -9 29 -46 14z m26 -27 c2 -7 -3 -12 -12 -12 -9 0 -16 7 -16 16 0 17 22 14
28 -4z m-5 -68 c11 -11 -3 -24 -18 -18 -8 4 -12 10 -9 15 6 11 18 12 27 3z"/>
<path d="M2365 496 c-13 -19 -14 -29 -6 -45 12 -22 45 -36 61 -26 17 11 11 22
-11 21 -12 -1 -24 5 -26 12 -3 8 6 12 26 12 34 0 39 11 15 34 -22 23 -41 20
-59 -8z m45 -6 c0 -5 -7 -10 -15 -10 -8 0 -15 5 -15 10 0 6 7 10 15 10 8 0 15
-4 15 -10z"/>
<path d="M2455 511 c-3 -2 -5 -22 -5 -43 0 -49 27 -54 32 -5 2 25 7 31 22 29
11 -2 16 2 14 9 -4 12 -54 20 -63 10z"/>
<path d="M580 481 c0 -38 22 -60 54 -54 23 5 26 10 26 44 0 47 -17 52 -22 7
-2 -21 -8 -33 -18 -33 -10 0 -16 12 -18 33 -4 40 -22 43 -22 3z"/>
<path d="M1300 424 c0 -14 4 -23 10 -19 6 3 10 15 10 26 0 10 -4 19 -10 19 -5
0 -10 -12 -10 -26z"/>
</g>
</svg>
